<svg viewBox="0 0 28 28" fill="none" xmlns="http://www.w3.org/2000/svg">
<path d="M14 0C10.4324 0 8.07616 1.48128 8.07616 2.89468V4.44118C8.07616 6.077 9.40226 7.4031 11.0381 7.4031H13.6634C13.8493 7.4031 14 7.55378 14 7.73966V7.73966C14 7.92553 13.8493 8.07621 13.6634 8.07621H2.89451C1.48061 8.07621 0 10.4321 0 13.9999C0 17.5677 1.48084 19.9236 2.89451 19.9236H4.58492C6.14093 19.9236 7.40233 18.6622 7.40233 17.1062V17.1062C7.40233 15.2071 8.94729 13.6619 10.8467 13.6619L17.1524 13.6615C18.6802 13.6615 19.9234 12.4184 19.9234 10.8903L19.9238 2.89468C19.9236 1.48128 17.5676 0 14 0Z" fill="#004A94"/>
<path d="M10.7896 4.84513C11.2605 4.84513 11.6422 4.46343 11.6422 3.99258C11.6422 3.52173 11.2605 3.14003 10.7896 3.14003C10.3188 3.14003 9.93705 3.52173 9.93705 3.99258C9.93705 4.46343 10.3188 4.84513 10.7896 4.84513Z" fill="white"/>
<path d="M25.1055 8.07661H23.4104C21.8563 8.07661 20.5965 9.33643 20.5965 10.8905V10.8905C20.5965 12.7896 19.0515 14.3345 17.1524 14.3345L10.8464 14.3352C9.31862 14.3352 8.0757 15.5784 8.0757 17.1064L8.07617 25.1053C8.07617 26.519 10.4321 28 14 28C17.5679 28 19.9238 26.5187 19.9238 25.1053V23.5588C19.9238 21.923 18.5977 20.5969 16.9619 20.5969H14.3366C14.1507 20.5969 14 20.4462 14 20.2603V20.2603C14 20.0745 14.1507 19.9238 14.3366 19.9238H25.1055C26.5194 19.9238 28 17.5679 28 14.0001C28 10.4323 26.5192 8.07661 25.1055 8.07661Z" fill="#FB9200"/>
<path d="M17.2105 24.8603C17.6813 24.8603 18.063 24.4786 18.063 24.0078C18.063 23.5369 17.6813 23.1552 17.2105 23.1552C16.7396 23.1552 16.3579 23.5369 16.3579 24.0078C16.3579 24.4786 16.7396 24.8603 17.2105 24.8603Z" fill="white"/>
</svg>
